<svg width="46" height="46" viewBox="0 0 46 46" fill="none" xmlns="http://www.w3.org/2000/svg">
<rect width="46" height="46" rx="12" fill="black" fill-opacity="0.15"/>
<path fill-rule="evenodd" clip-rule="evenodd" d="M23 41C18.1071 41 14.6948 40.9946 12.1169 40.6522C9.6117 40.3194 8.28073 39.7103 7.32992 38.778C7.29361 38.7424 7.25765 38.7064 7.22204 38.6701C6.28972 37.7193 5.68057 36.3883 5.34779 33.8831C5.00537 31.3052 5 27.8929 5 23C5 22.1846 5.00015 21.4102 5.00198 20.674C5.85876 19.1367 7.44503 18.0572 9.31752 17.6588C11.5986 17.1736 13.7625 17.6659 15.168 18.6735C15.5049 18.915 15.7969 19.1832 16.0385 19.475C14.7146 19.7017 13.6764 20.8193 13.6037 22.216C13.5195 23.8352 14.7647 25.2163 16.3851 25.3006C18.0055 25.3849 19.6 24.09 19.6981 22.2052C19.818 19.9016 18.7543 17.9668 16.7216 16.5095C14.6431 15.0194 11.6971 14.4295 8.76233 15.0539C7.35309 15.3538 6.0934 15.9716 5.04246 16.8162C5.08561 14.9736 5.17257 13.436 5.34779 12.1169C5.68057 9.6117 6.28972 8.28073 7.22204 7.32992C7.25765 7.29361 7.29361 7.25765 7.32992 7.22204C8.28073 6.28972 9.6117 5.68057 12.1169 5.34779C14.6948 5.00537 18.1071 5 23 5C27.8929 5 31.3052 5.00537 33.8831 5.34779C36.3883 5.68057 37.7193 6.28972 38.6701 7.22204C38.7064 7.25765 38.7424 7.29361 38.778 7.32992C39.7103 8.28073 40.3194 9.6117 40.6522 12.1169C40.6778 12.3094 40.7015 12.5065 40.7234 12.7086C40.3883 12.3681 40.0101 12.047 39.5906 11.7463C37.5122 10.2562 34.5662 9.66629 31.6314 10.2907C26.824 11.3135 23.7569 16.0369 24.7807 20.8408L27.3876 20.2862C26.6703 16.921 28.8189 13.6121 32.1866 12.8956C34.4676 12.4103 36.6315 12.9026 38.037 13.9103C38.374 14.1518 38.666 14.42 38.9075 14.7117C37.5836 14.9384 36.5455 16.0561 36.4728 17.4528C36.3885 19.072 37.6338 20.453 39.2541 20.5374C39.8647 20.5691 40.4716 20.4051 40.9961 20.0874C40.9998 20.9961 41 21.9649 41 23C41 27.1696 40.9961 30.2641 40.783 32.6831C39.9512 32.2468 39.0044 32 38 32C34.6863 32 32 34.6863 32 38C32 39.0044 32.2468 39.9512 32.6831 40.783C30.2641 40.9961 27.1696 41 23 41ZM23.8527 32.2946C26.4876 31.7356 28.055 29.3363 27.571 27.0714L30.182 26.5174C31.0066 30.376 28.3247 34.0674 24.4091 34.8981C20.4935 35.7289 16.5349 33.4463 15.7103 29.5878L18.3213 29.0338C18.8054 31.2987 21.2178 32.8536 23.8527 32.2946Z" fill="white"/>
<path d="M42 38C42 40.2091 40.2091 42 38 42C35.7909 42 34 40.2091 34 38C34 35.7909 35.7909 34 38 34C40.2091 34 42 35.7909 42 38Z" fill="#FF4141"/>
</svg>
