<?xml version="1.0" standalone="no"?>
<!DOCTYPE svg PUBLIC "-//W3C//DTD SVG 20010904//EN"
 "http://www.w3.org/TR/2001/REC-SVG-20010904/DTD/svg10.dtd">
<svg version="1.0" xmlns="http://www.w3.org/2000/svg"
 width="900.000000pt" height="900.000000pt" viewBox="0 0 900.000000 900.000000"
 preserveAspectRatio="xMidYMid meet">
<metadata>
Created by potrace 1.14, written by Peter Selinger 2001-2017
</metadata>
<g transform="translate(0.000000,900.000000) scale(0.100000,-0.100000)"
fill="#000000" stroke="none">
<path d="M3218 8995 c-1 -1 -109 -6 -238 -9 -129 -4 -262 -9 -295 -11 -33 -2
-109 -6 -170 -10 -114 -7 -165 -11 -250 -20 -27 -3 -75 -7 -105 -10 -85 -9
-130 -15 -200 -26 -179 -28 -239 -39 -300 -54 -30 -8 -66 -16 -80 -19 -38 -8
-89 -22 -150 -42 -30 -10 -57 -18 -60 -19 -99 -21 -381 -160 -509 -252 -84
-61 -263 -226 -316 -293 -234 -294 -383 -681 -450 -1165 -3 -22 -8 -51 -10
-65 -7 -40 -19 -149 -30 -265 -3 -38 -8 -88 -10 -110 -4 -37 -8 -107 -20 -315
-28 -511 -29 -3144 0 -3615 2 -38 7 -119 10 -180 3 -60 8 -123 10 -140 2 -16
7 -64 10 -105 6 -77 12 -138 21 -200 3 -19 7 -53 9 -75 3 -22 7 -51 10 -65 3
-14 7 -41 10 -60 3 -19 7 -46 10 -60 3 -14 7 -41 10 -60 10 -55 52 -228 79
-315 62 -209 162 -417 274 -574 71 -99 226 -265 302 -322 25 -18 47 -36 50
-40 16 -18 169 -113 255 -156 129 -65 370 -154 484 -178 9 -2 50 -11 91 -20
41 -9 84 -18 95 -21 33 -7 208 -35 240 -39 17 -1 48 -5 70 -9 93 -13 301 -32
445 -41 427 -26 669 -30 1975 -30 1468 0 1815 8 2255 50 134 13 157 16 195 21
22 3 53 8 68 10 82 10 125 18 262 45 185 38 160 32 285 69 58 18 115 34 128
37 12 3 25 9 28 14 3 5 12 9 20 9 15 0 128 50 219 97 214 111 436 305 577 503
208 293 345 707 403 1215 3 28 7 65 9 83 3 18 8 67 11 110 4 42 9 93 10 112 2
19 7 87 10 150 4 63 9 138 10 165 28 417 28 3237 0 3620 -2 28 -6 97 -9 155
-3 58 -8 125 -10 150 -3 25 -7 74 -11 110 -6 72 -12 125 -21 198 -3 26 -8 63
-10 82 -2 19 -6 46 -9 60 -3 14 -7 43 -10 65 -23 165 -85 408 -150 580 -185
496 -532 842 -1030 1030 -194 73 -481 141 -714 170 -30 4 -62 8 -71 10 -9 2
-50 6 -91 10 -41 3 -87 8 -104 10 -77 10 -203 19 -450 30 -82 4 -177 9 -210
12 -69 5 -2852 13 -2857 8z"/>
</g>
</svg>
